<svg width="153" height="44" viewBox="0 0 153 44" fill="none" xmlns="http://www.w3.org/2000/svg">
<path fill-rule="evenodd" clip-rule="evenodd" d="M137.266 0H108C109.573 9.81667 119.014 19 129.399 19H152.685C153 18.05 153 16.7833 153 15.8333C153 6.96667 146.077 0 137.266 0Z" fill="#444444"/>
<path fill-rule="evenodd" clip-rule="evenodd" d="M111 20V44H124.977V31.2H137.402C144.235 31.2 150.136 26.4 152 20H111Z" fill="#222222"/>
<path fill-rule="evenodd" clip-rule="evenodd" d="M60 0V44H72.5714C72.5714 44 75.7143 44 77.2857 40.8571C85.7714 23.8857 88.2857 18.8571 88.2857 18.8571H89.8571V44H104V0H91.4286C91.4286 0 88.2857 0.314286 86.7143 3.14286C79.4857 17.6 75.7143 25.1429 75.7143 25.1429H74.1429V0H60Z" fill="#222222"/>
<path fill-rule="evenodd" clip-rule="evenodd" d="M0 44V0H14.0294C14.0294 0 18.0824 0 20.2647 6.28571C25.8765 22.9429 26.5 25.1429 26.5 25.1429C26.5 25.1429 27.7471 21.0571 32.7353 6.28571C34.9176 0 38.9706 0 38.9706 0H53V44H38.9706V20.4286H37.4118L29.6176 44H23.3824L15.5882 20.4286H14.0294V44H0Z" fill="#222222"/>
</svg>
